# xmcd CD database file
#
# Track frame offsets:
#	150
#	31457
#	66103
#	95964
#	131521
#	165155
#	203784
#	235144
#	277202
#
# Disc length: 4177 seconds
#
# Revision: 0
# Processed by: cddbd v1.5.2PL0 Copyright (c) Steve Scherf et al.
# Submitted via: CDex 1.70beta2
#
DISCID=7f104f09
DTITLE=Manhattan Jazz Orchestra - Best of Best～Selected by 川島重行
DYEAR=2007
DGENRE=Jazz
TTITLE0=It Don’t Mean A Thing If It Ain’t Got Tha Swing
TTITLE1=Take Five
TTITLE2=Toccata And Fuge
TTITLE3=Some Skunk Funk
TTITLE4=Swing，Swing，Swing
TTITLE5=Birdland
TTITLE6=Take The A Train
TTITLE7=Air On The G String
TTITLE8=Sing，Sing，Sing
EXTD=YEAR: 2007
EXTT0=
EXTT1=
EXTT2=
EXTT3=
EXTT4=
EXTT5=
EXTT6=
EXTT7=
EXTT8=
PLAYORDER=
